<svg id="visual" viewBox="0 0 1920 1080" width="1920" height="1080" xmlns="http://www.w3.org/2000/svg" xmlns:xlink="http://www.w3.org/1999/xlink" version="1.1"><path d="M0 239L384 282L768 109L1152 206L1536 239L1920 206L1920 0L1536 0L1152 0L768 0L384 0L0 0Z" fill="#00cc8e"></path><path d="M0 627L384 498L768 573L1152 390L1536 573L1920 487L1920 204L1536 237L1152 204L768 107L384 280L0 237Z" fill="#009e80"></path><path d="M0 800L384 573L768 703L1152 541L1536 703L1920 660L1920 485L1536 571L1152 388L768 571L384 496L0 625Z" fill="#038373"></path><path d="M0 908L384 703L768 822L1152 638L1536 876L1920 865L1920 658L1536 701L1152 539L768 701L384 571L0 798Z" fill="#009e80"></path><path d="M0 1081L384 1081L768 1081L1152 1081L1536 1081L1920 1081L1920 863L1536 874L1152 636L768 820L384 701L0 906Z" fill="#00cc8e"></path></svg>